# xmcd
#
# Track frame offsets: 
#        300
#        18489
#        39227
#        62928
#        86449
#        117895
#        150094
#        170201
#        183846
#
# Disc length: 2798 seconds
#
# Revision: 0
# Processed by: cddbd v1.5.2PL0 Copyright (c) Steve Scherf et al.
# Submitted via: ExactAudioCopy v1.0b3
#
DISCID=670aea09
DTITLE=Big Jack Johnson - Juke Joint Saturday Night
DYEAR=2008
DGENRE=Electric Blues
TTITLE0=Nieokreślony twórca - Steppin Out Tonight 
TTITLE1=Nieokreślony twórca - Flat Foot
TTITLE2=Nieokreślony twórca - Rock Me
TTITLE3=Nieokreślony twórca - Delta Juke Boogie
TTITLE4=Nieokreślony twórca - The Way You Walk and Talk
TTITLE5=Nieokreślony twórca - You Told Me
TTITLE6=Nieokreślony twórca - Runnin and Hiddin
TTITLE7=Nieokreślony twórca - Jacks Guitar Groove
TTITLE8=Nieokreślony twórca - Mississippi Blues
EXTD=
EXTT0=
EXTT1=
EXTT2=
EXTT3=
EXTT4=
EXTT5=
EXTT6=
EXTT7=
EXTT8=
PLAYORDER=
